<?xml version="1.0"?>
<svg xmlns="http://www.w3.org/2000/svg" width="131" height="131" viewBox="0 0 131 131" fill="" data-library="gosweb_icons_1" data-icon="people_130" data-color="">
    <circle cx="51.4106" cy="83.6646" r="22.9718" transform="rotate(0.169302 51.4106 83.6646)" fill="#FFE073"/>
    <path d="M65.5921 31.7355C57.8838 31.7127 51.5736 37.9858 51.5508 45.6941C51.5355 50.8645 54.3644 55.4045 58.5462 57.8398C55.267 58.8985 52.3037 60.6657 49.8434 63.0016C48.3313 61.6446 46.5353 60.5812 44.6027 59.8298C47.5565 57.8593 49.5248 54.4857 49.536 50.6881C49.5539 44.6367 44.62 39.6735 38.5686 39.6557C32.5172 39.6378 27.554 44.5717 27.5361 50.6231C27.5249 54.4206 29.4732 57.8059 32.4153 59.7938C26.0307 62.2321 21.4836 68.3897 21.4622 75.6365L21.431 86.199C21.4327 86.612 21.5623 87.0144 21.8019 87.3508C22.0415 87.6872 22.3794 87.9412 22.7692 88.0779C26.8701 89.515 31.4774 90.4127 36.3555 90.6181C36.6181 90.6291 36.8803 90.5884 37.1272 90.4981C37.374 90.4078 37.6007 90.2697 37.7942 90.0918C37.9877 89.914 38.1443 89.6997 38.255 89.4613C38.3657 89.2229 38.4283 88.965 38.4394 88.7024C38.4504 88.4398 38.4096 88.1775 38.3193 87.9307C38.229 87.6838 38.0909 87.4572 37.913 87.2637C37.7351 87.0702 37.5209 86.9136 37.2825 86.8029C37.044 86.6922 36.7862 86.6296 36.5235 86.6186C32.5297 86.4504 28.8146 85.7284 25.4355 84.6796L25.4622 75.6483C25.4836 68.3942 31.2659 62.6342 38.5006 62.6556C41.8571 62.6655 44.8853 63.9481 47.1782 66.025C44.2305 69.9816 42.4644 74.9084 42.4486 80.2611L42.4074 94.1985C42.4069 94.6078 42.5319 95.0074 42.7656 95.3433C42.9993 95.6793 43.3305 95.9355 43.7144 96.0774C50.1707 98.3974 57.5581 99.712 65.3912 99.7352C73.2242 99.7583 80.589 98.4869 87.0579 96.2054C87.4485 96.0711 87.7879 95.819 88.0295 95.484C88.2711 95.149 88.403 94.7474 88.4072 94.3344L88.4182 90.6157C89.7323 90.7287 91.06 90.811 92.4176 90.815C98.0664 90.8317 103.394 89.9413 108.081 88.33C108.472 88.1956 108.811 87.9436 109.053 87.6086C109.294 87.2736 109.426 86.872 109.431 86.459L109.462 75.8966C109.483 68.6498 104.973 62.4654 98.6025 59.9894C101.556 58.0189 103.525 54.6452 103.536 50.8477C103.554 44.7963 98.6198 39.8331 92.5683 39.8152C86.5169 39.7973 81.5538 44.7313 81.5359 50.7827C81.5246 54.5899 83.4603 57.9675 86.4151 59.9534C84.4781 60.6933 82.6758 61.746 81.1558 63.0941C78.7092 60.7436 75.7565 58.9592 72.4836 57.881C76.6797 55.4704 79.5354 50.9473 79.5507 45.7768C79.5734 38.0685 73.3004 31.7583 65.5921 31.7355ZM65.5803 35.7355C71.1268 35.7519 75.5671 40.2185 75.5507 45.765C75.5343 51.3115 71.0677 55.7518 65.5212 55.7354C59.9747 55.719 55.5344 51.2524 55.5508 45.7059C55.5672 40.1594 60.0338 35.7191 65.5803 35.7355ZM38.5568 43.6556C42.4464 43.6671 45.5475 46.7866 45.536 50.6763C45.5245 54.566 42.4051 57.6671 38.5154 57.6556C34.6257 57.6441 31.5246 54.5246 31.5361 50.6349C31.5476 46.7453 34.6671 43.6442 38.5568 43.6556ZM92.5565 43.8152C96.4462 43.8267 99.5473 46.9462 99.5358 50.8359C99.5243 54.7255 96.4048 57.8266 92.5151 57.8152C88.6255 57.8037 85.5244 54.6842 85.5359 50.7945C85.5474 46.9048 88.6669 43.8037 92.5565 43.8152ZM65.5064 60.7354C76.0376 60.7665 84.4807 69.4744 84.4484 80.3852L84.4119 92.7601C78.6981 94.6169 72.291 95.7556 65.403 95.7352C58.5247 95.7149 52.11 94.5332 46.412 92.6478L46.4486 80.2729C46.4808 69.3638 54.9752 60.7042 65.5064 60.7354ZM92.5004 62.8151C99.7351 62.8365 105.483 68.6306 105.462 75.8847L105.435 84.9159C101.51 86.11 97.1395 86.8289 92.4295 86.815C91.0816 86.811 89.7438 86.7348 88.43 86.6157L88.4484 80.397C88.4642 75.0451 86.7273 70.1072 83.803 66.1332C86.1082 64.0699 89.1439 62.8052 92.5004 62.8151Z" fill="#273350" stroke="#273350" stroke-width="0.2"/>
</svg>
